<svg xmlns="http://www.w3.org/2000/svg" viewBox="0 0 800 500" fill="none">
  <rect width="800" height="500" fill="#f3f4f6"/>
  <rect x="40" y="40" width="720" height="56" rx="12" fill="#0a0e14"/>
  <text x="60" y="75" fill="#eab308" font-family="system-ui,sans-serif" font-size="16" font-weight="700">Continuity Analysis</text>
  <rect x="40" y="120" width="720" height="80" rx="10" fill="#fef2f2" stroke="#fecaca"/>
  <circle cx="70" cy="160" r="8" fill="#dc2626"/>
  <rect x="90" y="145" width="200" height="12" rx="3" fill="#991b1b"/>
  <rect x="90" y="165" width="320" height="10" rx="3" fill="#fca5a5"/>
  <rect x="40" y="220" width="720" height="80" rx="10" fill="#fff7ed" stroke="#fed7aa"/>
  <circle cx="70" cy="260" r="8" fill="#d97706"/>
  <rect x="90" y="245" width="180" height="12" rx="3" fill="#9a3412"/>
  <rect x="90" y="265" width="280" height="10" rx="3" fill="#fdba74"/>
  <rect x="40" y="320" width="720" height="80" rx="10" fill="#fef2f2" stroke="#fecaca"/>
  <circle cx="70" cy="360" r="8" fill="#dc2626"/>
  <rect x="90" y="345" width="220" height="12" rx="3" fill="#991b1b"/>
  <rect x="90" y="365" width="300" height="10" rx="3" fill="#fca5a5"/>
</svg>
